<svg width="64" height="64" viewBox="0 0 64 64" fill="none" xmlns="http://www.w3.org/2000/svg">
<rect width="64" height="64" rx="32" fill="#C7C7C7"/>
<path d="M31.5001 51.9792C26.3339 51.9792 21.3793 49.927 17.7263 46.2739C14.0732 42.6208 12.0209 37.6662 12.0209 32.5H9.72927C9.72927 38.274 12.023 43.8115 16.1058 47.8943C20.1886 51.9772 25.7261 54.2709 31.5001 54.2709V51.9792ZM31.5001 13.0209C36.6663 13.0209 41.6209 15.0731 45.274 18.7262C48.927 22.3792 50.9793 27.3338 50.9793 32.5H53.2709C53.2709 26.7261 50.9772 21.1886 46.8944 17.1057C42.8116 13.0229 37.2741 10.7292 31.5001 10.7292V13.0209ZM12.0209 32.5C12.0209 27.1215 14.198 22.2517 17.7272 18.7271L16.1047 17.1046C14.0803 19.1243 12.4749 21.5242 11.3808 24.1662C10.2867 26.8082 9.72547 29.6404 9.72927 32.5H12.0209ZM17.7272 18.7271C19.5337 16.9154 21.6805 15.4786 24.0441 14.4993C26.4077 13.5201 28.9416 13.0176 31.5001 13.0209V10.7292C28.6405 10.7254 25.8083 11.2867 23.1663 12.3808C20.5242 13.4749 18.1244 15.0802 16.1047 17.1046L17.7272 18.7271ZM16.1047 18.7271L45.273 47.8955L46.8932 46.273L17.7272 17.1046L16.1047 18.7271ZM50.9793 32.5C50.9793 37.8786 48.8022 42.7484 45.273 46.273L46.8932 47.8932C48.9177 45.8739 50.5234 43.4745 51.6179 40.8329C52.7123 38.1913 53.2741 35.3594 53.2709 32.5H50.9793ZM45.273 46.273C43.4665 48.0847 41.3197 49.5215 38.9561 50.5007C36.5925 51.48 34.0586 51.9825 31.5001 51.9792V54.2709C34.3597 54.2747 37.1919 53.7134 39.8339 52.6193C42.476 51.5252 44.8758 49.9198 46.8955 47.8955L45.273 46.273Z" fill="black" fill-opacity="0.5"/>
</svg>
