<svg width="262" height="148" viewBox="0 0 262 148" fill="none" xmlns="http://www.w3.org/2000/svg">
<g clip-path="url(#clip0_2024_5008)">
<rect y="0.0922852" width="262" height="147" fill="#C7C7C7"/>
<path d="M211.5 101.146C198.068 101.146 185.186 95.81 175.688 86.3121C166.19 76.8142 160.854 63.9322 160.854 50.5001H154.896C154.896 65.5125 160.859 79.9099 171.475 90.5253C182.09 101.141 196.488 107.104 211.5 107.104V101.146ZM211.5 -0.145743C224.932 -0.145743 237.814 5.19014 247.312 14.6881C256.81 24.186 262.146 37.068 262.146 50.5001H268.104C268.104 35.4877 262.14 21.0902 251.525 10.4749C240.91 -0.14044 226.512 -6.10408 211.5 -6.10408V-0.145743ZM160.854 50.5001C160.854 36.5159 166.515 23.8544 175.69 14.6905L171.472 10.472C166.208 15.7233 162.035 21.9628 159.19 28.8321C156.345 35.7014 154.886 43.0651 154.896 50.5001H160.854ZM175.69 14.6905C180.387 9.98006 185.969 6.24441 192.114 3.69828C198.26 1.15216 204.848 -0.154213 211.5 -0.145743V-6.10408C204.065 -6.11394 196.701 -4.65463 189.832 -1.80997C182.963 1.03468 176.723 5.20861 171.472 10.472L175.69 14.6905ZM171.472 14.6905L247.31 90.5282L251.522 86.3097L175.69 10.472L171.472 14.6905ZM262.146 50.5001C262.146 64.4843 256.485 77.1458 247.31 86.3097L251.522 90.5222C256.786 85.2721 260.96 79.0338 263.806 72.1656C266.652 65.2973 268.112 57.9345 268.104 50.5001H262.146ZM247.31 86.3097C242.613 91.0201 237.031 94.7558 230.886 97.3019C224.74 99.848 218.152 101.154 211.5 101.146V107.104C218.935 107.114 226.299 105.655 233.168 102.81C240.037 99.9655 246.277 95.7916 251.528 90.5282L247.31 86.3097Z" fill="black" fill-opacity="0.5"/>
</g>
<defs>
<clipPath id="clip0_2024_5008">
<rect width="262" height="147" fill="white" transform="translate(0 0.0922852)"/>
</clipPath>
</defs>
</svg>
