<svg width="542" height="153" viewBox="0 0 542 153" fill="none" xmlns="http://www.w3.org/2000/svg">
<g clip-path="url(#clip0_2024_4982)">
<rect width="542" height="153" fill="#C7C7C7"/>
<path d="M436.23 175.33C410.341 175.33 385.512 165.045 367.205 146.739C348.899 128.432 338.614 103.603 338.614 77.7134H327.13C327.13 106.649 338.624 134.399 359.085 154.859C379.545 175.32 407.295 186.814 436.23 186.814V175.33ZM436.23 -19.9031C462.12 -19.9031 486.949 -9.6185 505.256 8.68813C523.562 26.9948 533.847 51.8239 533.847 77.7134H545.331C545.331 48.7781 533.837 21.0279 513.376 0.567513C492.916 -19.8928 465.166 -31.3874 436.23 -31.3874V-19.9031ZM338.614 77.7134C338.614 50.7598 349.524 26.3556 367.21 8.69281L359.079 0.561938C348.934 10.6834 340.889 22.7097 335.406 35.9498C329.923 49.1899 327.111 63.3829 327.13 77.7134H338.614ZM367.21 8.69281C376.263 -0.386258 387.021 -7.58648 398.866 -12.494C410.711 -17.4014 423.409 -19.9194 436.23 -19.9031V-31.3874C421.9 -31.4064 407.707 -28.5936 394.467 -23.1108C381.227 -17.6279 369.201 -9.58291 359.079 0.561938L367.21 8.69281ZM359.079 8.69281L505.251 154.865L513.37 146.734L367.21 0.561938L359.079 8.69281ZM533.847 77.7134C533.847 104.667 522.937 129.071 505.251 146.734L513.37 154.853C523.516 144.734 531.562 132.71 537.047 119.472C542.532 106.234 545.347 92.0427 545.331 77.7134H533.847ZM505.251 146.734C496.198 155.813 485.44 163.013 473.595 167.921C461.75 172.828 449.052 175.346 436.23 175.33V186.814C450.561 186.833 464.754 184.02 477.994 178.538C491.234 173.055 503.26 165.01 513.382 154.865L505.251 146.734Z" fill="black" fill-opacity="0.5"/>
</g>
<defs>
<clipPath id="clip0_2024_4982">
<rect width="542" height="153" fill="white"/>
</clipPath>
</defs>
</svg>
