<svg width="1280" height="715" viewBox="0 0 1280 715" fill="none" xmlns="http://www.w3.org/2000/svg">
<g clip-path="url(#clip0_2029_5019)">
<rect width="1280" height="715" fill="#C7C7C7"/>
<path d="M640.291 386.129C587.932 386.129 537.718 365.33 500.694 328.306C463.671 291.283 442.871 241.069 442.871 188.71H419.646C419.646 247.228 442.892 303.35 484.271 344.729C525.65 386.108 581.772 409.355 640.291 409.355V386.129ZM640.291 -8.7095C692.65 -8.7095 742.864 12.09 779.887 49.1133C816.911 86.1365 837.71 136.351 837.71 188.71H860.936C860.936 130.191 837.689 74.0691 796.31 32.6901C754.931 -8.68883 698.809 -31.9353 640.291 -31.9353V-8.7095ZM442.871 188.71C442.871 134.199 464.936 84.844 500.704 49.1227L484.26 32.6789C463.743 53.1485 447.473 77.4704 436.384 104.247C425.296 131.024 419.607 159.728 419.646 188.71H442.871ZM500.704 49.1227C519.012 30.7612 540.77 16.1995 564.725 6.27465C588.68 -3.65023 614.361 -8.74252 640.291 -8.7095V-31.9353C611.309 -31.9738 582.605 -26.2853 555.828 -15.1967C529.051 -4.10817 504.73 12.1619 484.26 32.6789L500.704 49.1227ZM484.26 49.1227L779.878 344.741L796.298 328.297L500.704 32.6789L484.26 49.1227ZM837.71 188.71C837.71 243.221 815.645 292.575 779.878 328.297L796.298 344.717C816.817 324.252 833.089 299.935 844.182 273.162C855.274 246.39 860.968 217.689 860.936 188.71H837.71ZM779.878 328.297C761.569 346.658 739.812 361.22 715.856 371.145C691.901 381.07 666.221 386.162 640.291 386.129V409.355C669.273 409.393 697.976 403.705 724.753 392.616C751.53 381.528 775.852 365.258 796.322 344.741L779.878 328.297Z" fill="black" fill-opacity="0.5"/>
</g>
<defs>
<clipPath id="clip0_2029_5019">
<rect width="1280" height="715" fill="white"/>
</clipPath>
</defs>
</svg>
